<?xml version="1.0" encoding="utf-8"?>
<!-- Generator: Adobe Illustrator 24.1.1, SVG Export Plug-In . SVG Version: 6.00 Build 0)  -->
<svg version="1.1" xmlns="http://www.w3.org/2000/svg" xmlns:xlink="http://www.w3.org/1999/xlink" x="0px" y="0px"
	 viewBox="0 0 500 500" style="enable-background:new 0 0 500 500;" xml:space="preserve">
<style type="text/css">
	.st0{fill:#FFFFFF;}
	.st1{fill:#8ACDF0;}
	.st2{fill:#231F20;}
	.st3{fill:#FFD030;}
	.st4{fill:#FFBC00;}
	.st5{fill:#62BFE8;}
	.st6{fill:#FF76A0;}
</style>
<g id="BACKGROUND">
	<g>
		<rect class="st0" width="500" height="500"/>
	</g>
</g>
<g id="OBJECTS">
	<g>
		<g>
			<g>
				
					<ellipse transform="matrix(0.3727 -0.928 0.928 0.3727 14.3725 371.5218)" class="st1" cx="281.97" cy="175.13" rx="29.2" ry="17.68"/>
				<g>
					<path class="st2" d="M274.58,204.05c-2.48,0.07-4.89-0.37-7.14-1.34c-5.56-2.4-9.43-7.69-10.91-14.88
						c-1.43-6.98-0.43-14.96,2.83-22.49c3.25-7.53,8.38-13.73,14.45-17.47c6.25-3.85,12.75-4.65,18.31-2.25
						c4.62,2,7.86,5.91,9.54,10.59c1.43,3.98,1.58,8.34,0.84,12.47c-0.24,1.33-0.49,2.7-0.82,4.03c-0.07,0.3-0.43,2.36-0.84,2.38
						c-0.39,0.02-0.07-2.34-0.05-2.55c0.26-4.24,0.18-8.53-1.06-12.63c-0.36-1.18-0.81-2.33-1.39-3.41
						c-0.52-0.97-1.1-1.89-1.74-2.78c-1.49-2.09-3.41-4.02-5.79-5.05c-4.53-1.96-9.95-1.24-15.25,2.03
						c-5.49,3.38-10.15,9.05-13.14,15.96c-2.99,6.91-3.92,14.19-2.62,20.51c1.25,6.1,4.44,10.54,8.97,12.5
						c5.68,2.46,13.34,1.94,19.59-3.56c0.4-0.35,2.14-1.95,3.37-2.77c0.53-0.36,0.78-0.12,0.45,0.42c-0.83,1.35-2.39,2.96-2.79,3.32
						C284.49,201.36,279.7,203.9,274.58,204.05z"/>
				</g>
			</g>
			<g>
				<path class="st3" d="M235.38,133.65c6.68-16.14,3.96-32.59-6.09-36.75c-10.05-4.16-23.61,5.55-30.29,21.69
					c-6.68,16.14-3.96,32.59,6.09,36.75C215.14,159.49,228.7,149.78,235.38,133.65z"/>
				<g>
					<path class="st2" d="M232.88,93.43c-2.16-2.12-4.68-3.72-7.49-4.71c-6.96-2.45-14.79-0.93-22.06,4.27
						c-7.05,5.05-12.76,13.02-16.08,22.44c-3.32,9.42-3.87,19.21-1.54,27.56c2.4,8.61,7.55,14.71,14.5,17.16
						c5.78,2.04,11.91,1.23,17.29-1.57c4.56-2.37,8.31-6.15,11.07-10.45c0.89-1.39,1.8-2.82,2.6-4.28c0.18-0.33,1.57-2.46,1.22-2.83
						c-0.33-0.34-2,2.04-2.16,2.23c-3.27,4-6.89,7.78-11.39,10.41c-1.29,0.76-2.65,1.41-4.07,1.9c-1.26,0.44-2.55,0.78-3.86,1.05
						c-3.06,0.64-6.37,0.77-9.35-0.28c-5.67-2-9.92-7.13-11.95-14.43c-2.1-7.56-1.59-16.49,1.46-25.13
						c3.05-8.64,8.24-15.92,14.62-20.5c6.16-4.42,12.68-5.75,18.36-3.75c7.11,2.51,13.53,9.3,14.56,19.39
						c0.07,0.65,0.3,3.51,0.71,5.26c0.18,0.76,0.6,0.76,0.75-0.01c0.38-1.89,0.32-4.63,0.25-5.27
						C239.51,104.03,237.34,97.8,232.88,93.43z"/>
				</g>
			</g>
			<path class="st3" d="M242.36,353.68c-4.44-2.18-8.7-4.35-12.79-6.49c-32.92-17.32-55.06-33.92-69.72-49.51
				c-0.02-0.03-0.05-0.05-0.05-0.07c-0.62-0.75-1.2-1.48-1.78-2.23c-0.37-0.47-0.73-0.93-1.08-1.4c-0.37-0.47-0.72-0.93-1.05-1.4
				c-0.58-0.78-1.15-1.57-1.7-2.33c-0.33-0.47-0.67-0.95-1-1.42c-1.97-2.85-3.75-5.67-5.39-8.45c-0.28-0.47-0.55-0.93-0.82-1.4
				c-1.85-3.25-3.5-6.47-5-9.64c-9.95-21.16-11.21-50.82,4.82-67.73c0.45-0.47,0.88-0.92,1.35-1.35c0.23-0.23,0.48-0.47,0.73-0.68
				c0.38-0.37,0.77-0.72,1.17-1.05c0.42-0.37,0.83-0.72,1.27-1.03c0.32-0.28,0.63-0.53,0.97-0.77c1.13-0.85,2.3-1.65,3.49-2.37
				c0.63-0.38,1.25-0.75,1.9-1.08c0.48-0.27,0.98-0.53,1.48-0.77c0.3-0.15,0.58-0.28,0.88-0.43c0.2-0.08,0.38-0.17,0.58-0.25
				c0.42-0.2,0.85-0.38,1.28-0.55c0.6-0.25,1.2-0.48,1.82-0.7c0.63-0.23,1.28-0.45,1.93-0.63c0.15-0.05,0.3-0.1,0.45-0.13
				c0.42-0.13,0.83-0.25,1.25-0.35c0.43-0.12,0.88-0.22,1.32-0.32c0.55-0.13,1.1-0.25,1.63-0.35c0.17-0.02,0.32-0.05,0.47-0.08
				c0.47-0.08,0.92-0.15,1.38-0.22l-0.02,0.02c16.26-2.4,33.62,4.2,44.07,18.86c22.89,32.15-9.7,57.41-4.29,93.24
				c1.42,9.39,14.27,34.1,24.31,45.5C238.21,348.34,240.22,351.04,242.36,353.68z"/>
			<g>
				<path class="st4" d="M229.57,347.19c-32.92-17.32-55.06-33.92-69.72-49.51c-0.02-0.03-0.05-0.05-0.05-0.07
					c-0.62-0.75-1.2-1.48-1.78-2.23c-0.37-0.47-0.73-0.93-1.08-1.4c-0.37-0.47-0.72-0.93-1.05-1.4c-0.58-0.78-1.15-1.57-1.7-2.33
					c-0.33-0.47-0.67-0.95-1-1.42c-1.97-2.85-3.75-5.67-5.39-8.45c-0.28-0.47-0.55-0.93-0.82-1.4c-1.85-3.25-3.5-6.47-5-9.64
					c-9.95-21.16-11.21-50.82,4.82-67.73c0.45-0.47,0.88-0.92,1.35-1.35c0.23-0.23,0.48-0.47,0.73-0.68
					c0.38-0.37,0.77-0.72,1.17-1.05c0.42-0.37,0.83-0.72,1.27-1.03c0.32-0.28,0.63-0.53,0.97-0.77c1.13-0.85,2.3-1.65,3.49-2.37
					c0.63-0.38,1.25-0.75,1.9-1.08c0.48-0.27,0.98-0.53,1.48-0.77c0.3-0.15,0.58-0.28,0.88-0.43c0.2-0.08,0.38-0.17,0.58-0.25
					c0.42-0.2,0.85-0.38,1.28-0.55c0.6-0.25,1.2-0.48,1.82-0.7c0.63-0.23,1.28-0.45,1.93-0.63c0.15-0.05,0.3-0.1,0.45-0.13
					c0.42-0.13,0.83-0.25,1.25-0.35c0.43-0.12,0.88-0.22,1.32-0.32c0.55-0.13,1.1-0.25,1.63-0.35c0.17-0.02,0.32-0.05,0.47-0.08
					c0.47-0.08,0.92-0.15,1.38-0.22c-16.92,14.57-20.06,42.79-13.91,64.5C165.85,279.81,183,310.59,229.57,347.19z"/>
			</g>
			<g>
				<path class="st2" d="M228.6,348.9c-30.7-16.16-54.56-32.47-70.57-49.5c-0.05-0.05-0.1-0.11-0.14-0.16
					c-29.61-31.63-29.1-58.98-25.34-79.28c2.97-16.02,11.11-30.06,22.94-39.55c5.56-4.47,11.94-7.88,18.8-9.86
					c5.97-1.73,12.23-2.36,18.43-2.04c5.48,0.28,10.91,1.29,16.15,2.91c4.12,1.27,7.92,3.08,11.71,5.16
					c2.89,1.59,5.84,3.32,8.39,5.42c0.33,0.28,4.05,3.2,3.54,3.77c-0.54,0.62-4.23-1.89-4.71-2.16c-5.11-2.97-10.12-5.88-15.71-7.86
					c-5.12-1.82-10.48-3-15.91-3.4c-6.26-0.46-12.58,0.14-18.61,1.91c-6.93,2.03-13.34,5.56-18.95,10.07
					c-10.89,8.73-18.4,21.72-21.15,36.56c-3.55,19.16-4.01,45,24.16,75.04c0.05,0.05,0.09,0.1,0.14,0.16
					c15.63,16.59,38.6,33.96,68.75,49.83c4.18,2.18,27.17,14.1,26.73,14.82C256.71,361.57,232.82,351.1,228.6,348.9z"/>
			</g>
			<path class="st1" d="M320.67,339.41c-14.38,11.09-44.33,9.42-60.43,0.7c-50.26-27.26-59.76-53.02-56.46-69.78
				c1.57-7.96,5.68-15.38,12.16-20.68c9.18-7.5,19.04-8.27,27.15-6.82c17.71,3.18,27.76,19.76,41.25,29.45
				c7.25,5.2,15.48,10.58,24.8,11.39c9.38,0.81,17.66-4.34,23.09-11.23c1.27-1.61,2.42-3.31,3.47-5.07
				c5.14-8.6,8.64-19.04,8.9-28.95c0.03-1.04,0.02-2.11-0.07-3.18l0.63-7.87C359.74,277,344.51,321.04,320.67,339.41z"/>
			<g>
				<path class="st5" d="M272.11,331.48c-50.26-27.26-59.76-53.02-56.46-69.78c1.23-6.23,4.04-12.11,8.3-16.92
					c-2.68,1.15-5.37,2.73-8,4.88c-6.48,5.3-10.6,12.72-12.16,20.68c-3.3,16.76,6.2,42.52,56.46,69.78
					c16.1,8.72,46.04,10.39,60.43-0.7c1.94-1.49,3.81-3.17,5.62-4.99C310.7,341.32,286.15,339.08,272.11,331.48z"/>
			</g>
			<g>
				<path class="st2" d="M290.98,350.88c-11.32,0-22.96-2.9-33.14-8.73c-64.23-36.72-68.66-69.94-65.58-86.47
					c1.95-10.48,7.16-19.82,14.68-26.3c9.47-8.14,20.6-11.09,33.06-8.75c14.15,2.68,23.86,12.67,33.25,22.33
					c2.44,2.51,4.75,4.88,7.14,7.14c10.22,9.63,18.56,15.94,27.06,20.47c10.24,5.44,19.11-0.68,22.48-3.61
					c0.02-0.02,0.04-0.03,0.05-0.05c2.46-2.15,4.62-4.81,6.24-7.67c5.33-9.39,8.52-20.32,8.76-29.99c0.03-1.11,0.01-2.17-0.06-3.18
					c-0.28-4.55-1.52-8.07-3.7-10.48c-4.28-4.74-12.41-6.23-17.97-3.94c-7.92,3.27-13.76,8.82-17.72,23.14
					c-0.79,2.85-2.09,12.29-2.56,12.64c-0.29,0.21-0.39-4.49-0.37-4.83c0.2-3.84,0.74-7.68,1.57-11.43
					c2.12-9.53,7.54-17.75,16.35-22.33c0.39-0.2,0.78-0.39,1.18-0.58c6.8-3.16,17.35-2.54,23.24,3.98
					c2.95,3.27,4.63,7.81,4.98,13.49c0.08,1.15,0.11,2.38,0.07,3.64c-0.26,10.46-3.69,22.25-9.41,32.33
					c-1.88,3.33-4.39,6.41-7.25,8.92c-0.02,0.02-0.05,0.05-0.07,0.07c-8.6,7.49-19.13,9.09-28.16,4.29
					c-11.41-6.09-21.03-14.55-28.14-21.25c-2.47-2.33-4.92-4.85-7.29-7.29c-8.85-9.1-18-18.51-30.59-20.9
					c-10.9-2.04-20.61,0.52-28.87,7.63c-6.66,5.74-11.28,14.06-13.03,23.42c-2.84,15.23,1.6,46.03,63.15,81.21
					c19.15,10.96,43.84,10.78,60.02-0.44c26.7-18.5,54.78-58.6,44.88-113.42c-0.54-2.96-2.39-12.21-1.92-12.34
					c0.49-0.14,3.16,9,3.73,12.21c10.12,56.92-15.96,98.35-43.84,117.67C314.16,347.74,302.75,350.88,290.98,350.88z"/>
			</g>
			<g>
				<path class="st0" d="M358.46,183.31c-3,11.5-12.24,19.04-20.63,16.85c-8.39-2.19-12.76-13.29-9.75-24.79
					c3-11.5,12.24-19.04,20.63-16.85C357.09,160.71,361.46,171.81,358.46,183.31z"/>
				<path class="st6" d="M354.51,182.28c-2.62,10.05-10.7,16.65-18.03,14.73c-7.33-1.92-11.15-11.62-8.53-21.67
					c2.63-10.05,10.7-16.65,18.03-14.73C353.32,162.52,357.14,172.22,354.51,182.28z"/>
				<g>
					<path class="st2" d="M344.12,157.45c1.9-0.34,3.81-0.31,5.64,0.14c4.54,1.09,8.1,4.49,10.02,9.55
						c1.86,4.91,1.96,10.85,0.28,16.71c-1.68,5.86-4.95,10.99-9.21,14.42c-4.39,3.54-9.31,4.89-13.85,3.8
						c-3.77-0.91-6.69-3.38-8.5-6.59c-1.53-2.73-2.12-5.89-2.01-8.98c0.04-1,0.08-2.03,0.19-3.03c0.03-0.22,0.07-1.77,0.39-1.83
						c0.29-0.06,0.31,1.7,0.32,1.85c0.26,3.12,0.79,6.23,2.19,9.07c0.4,0.82,0.88,1.6,1.45,2.32c0.5,0.64,1.06,1.25,1.64,1.82
						c1.37,1.35,3.06,2.53,5.01,3c3.7,0.89,7.79-0.27,11.52-3.27c3.85-3.11,6.83-7.79,8.37-13.17c1.54-5.38,1.47-10.8-0.22-15.24
						c-1.63-4.3-4.56-7.15-8.27-8.05c-4.64-1.12-10.48,0.16-14.69,4.9c-0.27,0.3-1.43,1.67-2.29,2.42
						c-0.37,0.32-0.59,0.18-0.39-0.26c0.49-1.08,1.52-2.44,1.79-2.74C336.78,160.58,340.19,158.16,344.12,157.45z"/>
				</g>
			</g>
		</g>
	</g>
	<g>
	</g>
	<g>
	</g>
	<g>
	</g>
	<g>
	</g>
	<g>
	</g>
	<g>
	</g>
</g>
</svg>
